<?xml version="1.0" encoding="UTF-8" standalone="no"?>
<!-- Created with Inkscape (http://www.inkscape.org/) -->

<svg
   width="128"
   height="128"
   viewBox="0 0 33.866666 33.866666"
   version="1.1"
   id="svg5"
   xml:space="preserve"
   inkscape:version="1.2.2 (b0a8486541, 2022-12-01)"
   sodipodi:docname="logo-final.svg"
   inkscape:export-filename="icon48.png"
   inkscape:export-xdpi="36"
   inkscape:export-ydpi="36"
   xmlns:inkscape="http://www.inkscape.org/namespaces/inkscape"
   xmlns:sodipodi="http://sodipodi.sourceforge.net/DTD/sodipodi-0.dtd"
   xmlns:xlink="http://www.w3.org/1999/xlink"
   xmlns="http://www.w3.org/2000/svg"
   xmlns:svg="http://www.w3.org/2000/svg"><sodipodi:namedview
     id="namedview7"
     pagecolor="#ffffff"
     bordercolor="#666666"
     borderopacity="1.0"
     inkscape:showpageshadow="2"
     inkscape:pageopacity="0"
     inkscape:pagecheckerboard="true"
     inkscape:deskcolor="#d1d1d1"
     inkscape:document-units="mm"
     showgrid="false"
     inkscape:zoom="5.6568543"
     inkscape:cx="82.996658"
     inkscape:cy="81.31728"
     inkscape:window-width="2560"
     inkscape:window-height="1371"
     inkscape:window-x="2560"
     inkscape:window-y="32"
     inkscape:window-maximized="1"
     inkscape:current-layer="layer4" /><defs
     id="defs2"><linearGradient
       inkscape:collect="always"
       id="linearGradient33703"><stop
         style="stop-color:#c0aa6b;stop-opacity:1;"
         offset="0"
         id="stop33699" /><stop
         style="stop-color:#c0aa6b;stop-opacity:0;"
         offset="1"
         id="stop33701" /></linearGradient><linearGradient
       inkscape:collect="always"
       id="linearGradient33612"><stop
         style="stop-color:#c0aa6b;stop-opacity:0.67973304;"
         offset="0"
         id="stop33608" /><stop
         style="stop-color:#c0aa6b;stop-opacity:0;"
         offset="1"
         id="stop33610" /></linearGradient><linearGradient
       inkscape:collect="always"
       xlink:href="#linearGradient33612"
       id="linearGradient33658"
       gradientUnits="userSpaceOnUse"
       x1="9.7304125"
       y1="20.950064"
       x2="8.9786854"
       y2="22.304247"
       gradientTransform="translate(5.287414,-1.4868317)" /><linearGradient
       inkscape:collect="always"
       xlink:href="#linearGradient33703"
       id="linearGradient33707"
       x1="11.053944"
       y1="20.636692"
       x2="9.8137579"
       y2="22.298876"
       gradientUnits="userSpaceOnUse" /><linearGradient
       inkscape:collect="always"
       xlink:href="#linearGradient33703"
       id="linearGradient33752"
       gradientUnits="userSpaceOnUse"
       x1="7.7201028"
       y1="18.416445"
       x2="8.8847246"
       y2="20.644691"
       gradientTransform="translate(11.108361,2.0202254)" /><filter
       style="color-interpolation-filters:sRGB;"
       inkscape:label="Drop Shadow"
       id="filter36388"
       x="-0.30563427"
       y="-0.21645904"
       width="1.6112685"
       height="1.4329181"><feFlood
         flood-opacity="0.92549"
         flood-color="rgb(178,48,86)"
         result="flood"
         id="feFlood36378" /><feComposite
         in="flood"
         in2="SourceGraphic"
         operator="in"
         result="composite1"
         id="feComposite36380" /><feGaussianBlur
         in="composite1"
         stdDeviation="0.5"
         result="blur"
         id="feGaussianBlur36382" /><feOffset
         dx="0"
         dy="0"
         result="offset"
         id="feOffset36384" /><feComposite
         in="SourceGraphic"
         in2="offset"
         operator="over"
         result="fbSourceGraphic"
         id="feComposite36386" /><feColorMatrix
         result="fbSourceGraphicAlpha"
         in="fbSourceGraphic"
         values="0 0 0 -1 0 0 0 0 -1 0 0 0 0 -1 0 0 0 0 1 0"
         id="feColorMatrix36390" /><feFlood
         id="feFlood36392"
         flood-opacity="0.92549"
         flood-color="rgb(252,238,240)"
         result="flood"
         in="fbSourceGraphic" /><feComposite
         in2="fbSourceGraphic"
         id="feComposite36394"
         in="flood"
         operator="in"
         result="composite1" /><feGaussianBlur
         id="feGaussianBlur36396"
         in="composite1"
         stdDeviation="0.5"
         result="blur" /><feOffset
         id="feOffset36398"
         dx="0"
         dy="0"
         result="offset" /><feComposite
         in2="offset"
         id="feComposite36400"
         in="fbSourceGraphic"
         operator="over"
         result="composite2" /></filter></defs><g
     inkscape:groupmode="layer"
     id="layer4"
     inkscape:label="Layer 4"
     style="display:inline"><path
       id="path584-5"
       style="display:inline;fill:none;fill-opacity:1;stroke:#434343;stroke-width:0.635;stroke-linecap:round;stroke-linejoin:round;stroke-opacity:1;stroke-dasharray:none"
       d="M 21.528918,1.56993 9.0526774,10.207646 5.7438354,8.6465007 C 5.9074529,9.7240537 6.1082516,10.758108 6.330363,11.787394 L 1.0924398,9.1229574 c 0,0 3.3550364,4.2295116 4.5614787,6.2032386 0.2872856,0.469996 0.5159369,0.961324 0.6981486,1.437122 l 0.076998,14.452348 -0.059945,-0.001 0.059945,0.0047 v 0.03049 l 0.6040975,0.01499 2.1011638,0.157613 14.4657838,0.246497 6.928259,0.168982 0.882117,-0.214457 0.655257,-0.135909 -5.17e-4,-0.02274 0.263033,-0.06408 -0.111621,-14.07666 -1.187007,-1.189075 0.833024,-0.74259 -1.261422,-1.794206 c -0.454757,0.227377 -0.894372,0.493018 -1.318266,0.788066 L 25.431523,10.529073 25.192778,1.8996257 Z" /><g
       id="g36611"
       inkscape:label="stuffed-envelope"
       transform="matrix(1.266874,0,0,1.266874,-2.564896,-4.400976)"><g
         id="g33849"
         style="display:inline;opacity:1"
         inkscape:label="envelope"><path
           style="opacity:1;fill:#f5e1b5;fill-opacity:1;stroke:none;stroke-width:0.264583px;stroke-linecap:butt;stroke-linejoin:miter;stroke-opacity:1"
           d="M 7.0995232,28.140818 26.122022,28.604731 27.542741,28.259627 27.454733,17.148323 22.098763,11.785025 21.910172,4.9734133 19.018448,4.7131689 7.4389847,12.729826 7.0240921,14.036705 Z"
           id="path584" /><path
           style="font-variation-settings:normal;display:inline;opacity:1;vector-effect:none;fill:#c0aa6b;fill-opacity:1;stroke:none;stroke-width:0.264583px;stroke-linecap:butt;stroke-linejoin:miter;stroke-miterlimit:4;stroke-dasharray:none;stroke-dashoffset:0;stroke-opacity:1;-inkscape-stroke:none;stop-color:#000000;stop-opacity:1"
           d="m 9.2790228,28.177122 c 0,0 1.2890862,-1.064123 2.9871212,-1.824206 1.698033,-0.760083 3.609437,-1.144127 3.609437,-1.144127 l -2.053644,-1.264141 0.346717,-0.312035 c 0,0 0.266714,0.206024 0.631211,0.230027 0.364496,0.024 0.537858,-0.210025 0.537858,-0.210025 l 8.13013,4.680521 -0.266707,0.124016 z"
           id="path9945"
           sodipodi:nodetypes="cscccscccc" /><path
           style="font-variation-settings:normal;display:inline;opacity:1;vector-effect:none;fill:url(#linearGradient33707);fill-opacity:1;stroke:none;stroke-width:0.264583px;stroke-linecap:butt;stroke-linejoin:miter;stroke-miterlimit:4;stroke-dasharray:none;stroke-dashoffset:0;stroke-opacity:1;-inkscape-stroke:none;stop-color:#000000;stop-opacity:1"
           d="M 7.4000541,19.046514 14.138856,23.657028 13.84104,23.947061 7.3467131,23.693033 Z"
           id="path33697"
           sodipodi:nodetypes="ccccc" /><path
           style="font-variation-settings:normal;display:inline;vector-effect:none;fill:url(#linearGradient33752);fill-opacity:1;stroke:none;stroke-width:0.264583px;stroke-linecap:butt;stroke-linejoin:miter;stroke-miterlimit:4;stroke-dasharray:none;stroke-dashoffset:0;stroke-opacity:1;-inkscape-stroke:none;stop-color:#000000"
           d="m 15.226878,23.6544 c 2.748558,-1.400182 7.070491,-5.362243 10.207031,-5.331968 l -0.484508,7.644854 -6.706469,-0.611206 z"
           id="path33697-5"
           sodipodi:nodetypes="ccccc" /><g
           id="g9943"><path
             style="fill:#52472a;fill-opacity:1;stroke:none;stroke-width:0.264583px;stroke-linecap:butt;stroke-linejoin:miter;stroke-opacity:1"
             d="m 26.641669,17.575938 0.626756,-0.414048 0.02227,7.570846 -0.595646,0.844094 z"
             id="path9144"
             sodipodi:nodetypes="ccccc" /><path
             style="font-variation-settings:normal;opacity:1;vector-effect:none;fill:#52472a;fill-opacity:1;stroke:none;stroke-width:0.264583px;stroke-linecap:butt;stroke-linejoin:miter;stroke-miterlimit:4;stroke-dasharray:none;stroke-dashoffset:0;stroke-opacity:1;-inkscape-stroke:none;stop-color:#000000;stop-opacity:1"
             d="m 26.729939,25.700352 0.554526,-0.790071 0.05109,3.417887 -0.549928,0.114515 z"
             id="path9921"
             sodipodi:nodetypes="ccccc" /><path
             style="font-variation-settings:normal;opacity:1;vector-effect:none;fill:#52472a;fill-opacity:1;stroke:none;stroke-width:0.264583px;stroke-linecap:butt;stroke-linejoin:miter;stroke-miterlimit:4;stroke-dasharray:none;stroke-dashoffset:0;stroke-opacity:1;-inkscape-stroke:none;stop-color:#000000;stop-opacity:1"
             d="m 26.04602,18.023986 0.475628,-0.444048 0.102237,10.885215 -0.515635,0.112014 z"
             id="path9923"
             sodipodi:nodetypes="ccccc" /><path
             style="font-variation-settings:normal;opacity:1;vector-effect:none;fill:#52472a;fill-opacity:1;stroke:none;stroke-width:0.264583px;stroke-linecap:butt;stroke-linejoin:miter;stroke-miterlimit:4;stroke-dasharray:none;stroke-dashoffset:0;stroke-opacity:1;-inkscape-stroke:none;stop-color:#000000;stop-opacity:1"
             d="M 7.1809212,28.121115 13.821937,23.556604 13.715256,23.352583 Z"
             id="path9925" /><path
             style="font-variation-settings:normal;opacity:1;vector-effect:none;fill:#52472a;fill-opacity:1;stroke:none;stroke-width:0.264583px;stroke-linecap:butt;stroke-linejoin:miter;stroke-miterlimit:4;stroke-dasharray:none;stroke-dashoffset:0;stroke-opacity:1;-inkscape-stroke:none;stop-color:#000000;stop-opacity:1"
             d="M 7.7054497,26.936983 11.679391,22.928534 11.492693,22.812522 Z"
             id="path9927" /><path
             style="font-variation-settings:normal;opacity:1;vector-effect:none;fill:#52472a;fill-opacity:1;stroke:none;stroke-width:0.264583px;stroke-linecap:butt;stroke-linejoin:miter;stroke-miterlimit:4;stroke-dasharray:none;stroke-dashoffset:0;stroke-opacity:1;-inkscape-stroke:none;stop-color:#000000;stop-opacity:1"
             d="m 25.432595,18.784071 -0.213364,8.50495 c 0,0 -0.02667,0.328039 -0.311159,0.112012 -0.284493,-0.216025 -5.431939,-3.420381 -5.431939,-3.420381 0,0 0.0889,-0.26003 0.453399,-0.26803 0.364503,-0.008 0.56898,0.192021 0.56898,0.192021 0,0 -0.42674,-0.568063 -0.906811,-0.584065 -0.480071,-0.016 -1.049044,0.320036 -1.049044,0.320036 l 6.436532,3.87243 c 0,0 0.328938,0.164021 0.35561,-0.12401 0.02667,-0.288033 0.0978,-8.604963 0.0978,-8.604963 z"
             id="path9929" /><path
             style="font-variation-settings:normal;opacity:1;vector-effect:none;fill:#52472a;fill-opacity:1;stroke:none;stroke-width:0.264583px;stroke-linecap:butt;stroke-linejoin:miter;stroke-miterlimit:4;stroke-dasharray:none;stroke-dashoffset:0;stroke-opacity:1;-inkscape-stroke:none;stop-color:#000000;stop-opacity:1"
             d="m 15.364395,23.668619 8.174575,4.696524 -0.08,0.154016 L 9.2345718,28.277131 7.0520139,28.113113 23.18336,28.34514 15.186587,23.754626 Z"
             id="path9931"
             sodipodi:nodetypes="cccccccc" /><path
             style="font-variation-settings:normal;opacity:1;vector-effect:none;fill:#52472a;fill-opacity:1;stroke:none;stroke-width:0.264583px;stroke-linecap:butt;stroke-linejoin:miter;stroke-miterlimit:4;stroke-dasharray:none;stroke-dashoffset:0;stroke-opacity:1;-inkscape-stroke:none;stop-color:#000000;stop-opacity:1"
             d="m 7.6876705,19.656169 0.1155682,7.228807 0.044451,-7.25281 z"
             id="path9933" /></g><path
           style="font-variation-settings:normal;opacity:1;vector-effect:none;fill:#c0aa6b;fill-opacity:1;stroke:none;stroke-width:0.264583px;stroke-linecap:butt;stroke-linejoin:miter;stroke-miterlimit:4;stroke-dasharray:none;stroke-dashoffset:0;stroke-opacity:1;-inkscape-stroke:none;stop-color:#000000;stop-opacity:1"
           d="M 20.911906,5.9166356 19.253877,5.786621 7.4565215,13.975535 l -0.071123,4.872544 6.9077235,4.584512 c 0,0 0.231143,0.204025 0.515629,0.17602 0.284487,-0.028 0.800123,-0.252028 0.800123,-0.252028 l 8.552413,-5.148576 1.324652,-0.04 c 0,0 0.93347,-0.740083 0.800116,-0.736083 -0.133354,0.004 -5.387482,-5.10857 -5.387482,-5.10857 z"
           id="path10012"
           sodipodi:nodetypes="cccccscccscc" /><path
           style="font-variation-settings:normal;vector-effect:none;fill:#92804f;fill-opacity:1;stroke:none;stroke-width:0.264583px;stroke-linecap:butt;stroke-linejoin:miter;stroke-miterlimit:4;stroke-dasharray:none;stroke-dashoffset:0;stroke-opacity:1;-inkscape-stroke:none;stop-color:#000000"
           d="M 19.289435,5.7306148 20.894123,5.9186358 9.5368376,13.827519 7.4831934,13.955533 Z"
           id="path14360"
           sodipodi:nodetypes="ccccc" /><path
           style="font-variation-settings:normal;vector-effect:none;fill:#665836;fill-opacity:1;stroke:none;stroke-width:0.264583px;stroke-linecap:butt;stroke-linejoin:miter;stroke-miterlimit:4;stroke-dasharray:none;stroke-dashoffset:0;stroke-opacity:1;-inkscape-stroke:none;stop-color:#000000"
           d="m 7.4298494,18.856081 0.053344,-4.944553 2.0803163,-0.08801 0.01778,6.596736 z"
           id="path14362" /><path
           style="font-variation-settings:normal;display:inline;vector-effect:none;fill:url(#linearGradient33658);fill-opacity:1;stroke:none;stroke-width:0.264583px;stroke-linecap:butt;stroke-linejoin:miter;stroke-miterlimit:4;stroke-dasharray:none;stroke-dashoffset:0;stroke-opacity:1;-inkscape-stroke:none;stop-color:#000000"
           d="m 13.417318,18.195514 3.569565,2.424497 -1.59567,1.954568 -2.164773,-1.34215 z"
           id="path33583-7"
           sodipodi:nodetypes="ccccc" /></g><path
         style="font-variation-settings:normal;opacity:1;vector-effect:none;fill:#f9f9de;fill-opacity:1;stroke:none;stroke-width:0.264583px;stroke-linecap:butt;stroke-linejoin:miter;stroke-miterlimit:4;stroke-dasharray:none;stroke-dashoffset:0;stroke-opacity:1;-inkscape-stroke:none;stop-color:#000000;stop-opacity:1"
         d="M 7.1186907,14.139553 19.316107,5.6906104 19.03162,4.7145013 7.572096,12.819406 Z"
         id="path12909" /><g
         id="g33830"
         style="display:inline"
         inkscape:label="paper"><path
           style="font-variation-settings:normal;opacity:1;vector-effect:none;fill:#034b50;fill-opacity:1;stroke:none;stroke-width:0.264583px;stroke-linecap:butt;stroke-linejoin:miter;stroke-miterlimit:4;stroke-dasharray:none;stroke-dashoffset:0;stroke-opacity:1;-inkscape-stroke:none;stop-color:#000000;stop-opacity:1"
           d="m 19.778393,6.098656 c -1.173902,-0.3127523 -4.72425,5.324263 -4.160626,5.540618 l 2.320351,-0.700078 z"
           id="path25622"
           sodipodi:nodetypes="cccc" /><path
           style="font-variation-settings:normal;opacity:1;vector-effect:none;fill:#034b50;fill-opacity:1;stroke:none;stroke-width:0.264583px;stroke-linecap:butt;stroke-linejoin:miter;stroke-miterlimit:4;stroke-dasharray:none;stroke-dashoffset:0;stroke-opacity:1;-inkscape-stroke:none;stop-color:#000000;stop-opacity:1"
           d="m 18.578215,10.767177 1.946963,-0.564063 0.0089,-2.1522402 c -1.037171,0.6142224 -1.497341,1.6646395 -1.955863,2.7163032 z"
           id="path27487"
           sodipodi:nodetypes="cccc" /><path
           style="font-variation-settings:normal;display:inline;opacity:1;vector-effect:none;fill:#3d8bd6;fill-opacity:1;stroke:none;stroke-width:0.264583px;stroke-linecap:butt;stroke-linejoin:miter;stroke-miterlimit:4;stroke-dasharray:none;stroke-dashoffset:0;stroke-opacity:1;-inkscape-stroke:none;stop-color:#000000;stop-opacity:1"
           d="M 10.123597,20.90831 C 9.7442902,20.85887 9.5662056,12.184296 10.176937,11.971311 L 16.391219,7.6988349 C 17.353337,7.142307 18.024221,6.8501825 18.708244,6.6452166 15.245043,11.002958 13.349962,16.344105 10.994842,21.344357 Z"
           id="path14429"
           sodipodi:nodetypes="cccccc" /><path
           style="font-variation-settings:normal;opacity:1;vector-effect:none;fill:#06a2ad;fill-opacity:1;stroke:none;stroke-width:0.264583px;stroke-linecap:butt;stroke-linejoin:miter;stroke-miterlimit:4;stroke-dasharray:none;stroke-dashoffset:0;stroke-opacity:1;-inkscape-stroke:none;stop-color:#000000;stop-opacity:1"
           d="m 11.045133,21.386246 c 0,0 0.129477,-2.877953 1.161524,-5.426967 0.926056,-2.287232 3.688407,-5.090223 3.728111,-5.044204 0.286051,0.331549 4.90085,-0.498835 4.640708,-1.0841219 l -0.257823,10.8012079 -4.769617,2.87432 -0.733446,0.286031 z"
           id="path20163"
           sodipodi:nodetypes="cssccccc" /><path
           style="font-variation-settings:normal;display:inline;opacity:1;vector-effect:none;fill:#06a2ad;fill-opacity:1;stroke:none;stroke-width:0.264583px;stroke-linecap:butt;stroke-linejoin:miter;stroke-miterlimit:4;stroke-dasharray:none;stroke-dashoffset:0;stroke-opacity:1;-inkscape-stroke:none;stop-color:#000000;stop-opacity:1"
           d="m 9.1812276,20.20023 c -0.053338,0.06801 -1.6535829,-7.1648 -1.6535829,-7.1648 L 2.8869351,10.675167 c 0,0 2.6482457,3.338595 3.6005452,4.896547 0.9522996,1.557952 1.0935021,3.41238 1.0935021,3.41238 z"
           id="path18366"
           sodipodi:nodetypes="ccczcc" /><path
           style="font-variation-settings:normal;opacity:1;vector-effect:none;fill:#0a8087;fill-opacity:1;stroke:none;stroke-width:0.264583px;stroke-linecap:butt;stroke-linejoin:miter;stroke-miterlimit:4;stroke-dasharray:none;stroke-dashoffset:0;stroke-opacity:1;-inkscape-stroke:none;stop-color:#000000;stop-opacity:1"
           d="M 10.230278,20.92031 C 10.225464,20.859724 9.9450564,18.465807 9.9416567,16.093082 9.9387711,14.079079 10.2125,12.023317 10.2125,12.023317 L 6.5586038,10.299126 c 0.2771778,1.82544 0.6865277,3.491868 1.1171436,5.305195 0.3577958,1.506682 0.6697171,3.165562 1.4877009,4.635914 z"
           id="path22097"
           sodipodi:nodetypes="csccscc" /><path
           style="font-variation-settings:normal;opacity:1;vector-effect:none;fill:#2e6ca6;fill-opacity:1;stroke:none;stroke-width:0.264583px;stroke-linecap:butt;stroke-linejoin:miter;stroke-miterlimit:4;stroke-dasharray:none;stroke-dashoffset:0;stroke-opacity:1;-inkscape-stroke:none;stop-color:#000000;stop-opacity:1"
           d="m 20.142902,20.640279 c 1.195527,-1.843167 3.254841,-5.041909 6.036477,-6.432716 l 0.995707,1.416157 -2.933782,2.616291 z"
           id="path23479"
           sodipodi:nodetypes="ccccc" /></g><path
         style="font-variation-settings:normal;display:inline;opacity:1;vector-effect:none;fill:none;fill-opacity:1;stroke:#f9f9de;stroke-width:0.264583px;stroke-linecap:butt;stroke-linejoin:miter;stroke-miterlimit:4;stroke-dasharray:none;stroke-dashoffset:0;stroke-opacity:1;-inkscape-stroke:none;stop-color:#000000;stop-opacity:1"
         d="m 7.5572005,18.76493 c -0.1180705,0.01506 -0.1636643,0.130085 -0.05088,0.279393 0.1847344,0.244557 6.6712265,4.504281 6.6712265,4.504281 0,0 0.257815,0.216025 0.728999,0.220025 0.471185,0.004 9.14806,-5.400604 9.14806,-5.400604 l 1.555794,-0.07601 0.835681,-0.796088"
         id="path10015"
         sodipodi:nodetypes="cscsccc" /></g><g
       id="g36581"
       inkscape:label="P"
       style="display:inline"
       transform="matrix(1.266874,0,0,1.266874,-2.564896,-4.400976)"><path
         id="path33878-9-1"
         style="font-variation-settings:normal;display:inline;vector-effect:none;fill:#362814;fill-opacity:1;stroke:none;stroke-width:0.310704px;stroke-linecap:butt;stroke-linejoin:miter;stroke-miterlimit:4;stroke-dasharray:none;stroke-dashoffset:0;stroke-opacity:1;-inkscape-stroke:none;stop-color:#000000"
         d="m 11.432061,12.275894 c 0.852001,0.210436 1.535021,0.112174 2.209329,0.776962 0.0023,2.8164 0.209875,5.619573 0.129625,8.419528 -0.270904,0.273308 -0.443923,0.438116 -0.976475,0.888782 2.133354,-0.0089 2.414692,0.02924 4.546482,-0.06086 -0.55186,-0.41166 -0.882544,-0.687219 -1.160813,-1.009803 -0.03451,-1.05215 0.01993,-2.357179 0.05956,-3.377013 2.128058,0.353594 4.107552,-1.075791 4.120931,-3.004025 0.01338,-1.928235 -1.09437,-3.335256 -2.772194,-3.572779 -1.575758,-0.283228 -2.702179,-0.47091 -4.278393,-0.75157 -0.744852,0.678747 -1.228182,1.095269 -1.878055,1.690779 z m 6.626514,2.605003 c -0.04103,1.027438 -0.884208,1.32947 -1.856018,1.116496 -0.03906,-0.751853 0.01314,-2.161804 0.0088,-2.667079 1.492548,-0.07611 1.910751,0.623227 1.847268,1.550583 z"
         sodipodi:nodetypes="ccccccczccccccccc" /><path
         id="path33878-9"
         style="font-variation-settings:normal;display:inline;vector-effect:none;fill:#f8527f;fill-opacity:1;stroke:none;stroke-width:0.310704px;stroke-linecap:butt;stroke-linejoin:miter;stroke-miterlimit:4;stroke-dasharray:none;stroke-dashoffset:0;stroke-opacity:1;-inkscape-stroke:none;stop-color:#000000"
         d="m 13.346986,11.019691 -1.147822,1.049262 c 0,0 0.09199,0.0022 0.774025,0.08836 0.682039,0.08607 1.13146,0.708676 1.13146,0.708676 0,0 0.08535,8.472918 0.0258,8.765117 -0.05955,0.292201 -0.155556,0.277129 -0.470708,0.474596 1.44171,0.0089 2.093757,-0.02261 2.861457,-0.04919 -0.208402,-0.174413 -0.576292,-0.351598 -0.625513,-0.588711 -0.03652,-0.175919 -0.04696,-1.855874 -0.01448,-3.998668 1.461186,0.530719 3.828785,-0.204792 4.135053,-2.489438 0.349533,-2.607375 -2.002395,-3.119112 -2.002395,-3.119112 z m 2.509244,5.297159 0.01181,-3.458302 c 1.598174,0.105923 2.422897,0.317986 2.510735,1.669974 0.0247,1.714029 -0.866665,2.172076 -2.522547,1.788328 z"
         sodipodi:nodetypes="ccscsccscsccccccc" /><g
         id="g36272"
         style="fill:#f9a9a8;fill-opacity:1"
         inkscape:label="p-highlight"><path
           style="font-variation-settings:normal;opacity:1;vector-effect:none;fill:#f9a9a8;fill-opacity:1;stroke:none;stroke-width:0.264583px;stroke-linecap:butt;stroke-linejoin:miter;stroke-miterlimit:4;stroke-dasharray:none;stroke-dashoffset:0;stroke-opacity:1;-inkscape-stroke:none;stop-color:#000000;stop-opacity:1"
           d="m 15.854906,16.296803 c 0,0 1.112688,0.814678 2.247373,-0.397438 -1.144122,0.776489 -2.247373,0.397438 -2.247373,0.397438 z"
           id="path36012"
           sodipodi:nodetypes="ccc" /><path
           style="font-variation-settings:normal;display:inline;vector-effect:none;fill:#f9a9a8;fill-opacity:1;stroke:none;stroke-width:0.346609px;stroke-linecap:butt;stroke-linejoin:miter;stroke-miterlimit:4;stroke-dasharray:none;stroke-dashoffset:0;stroke-opacity:1;-inkscape-stroke:none;stop-color:#000000"
           d="m 16.526719,22.058189 c -0.0024,8.13e-4 -0.596863,-0.174978 -0.616967,-0.551413 0.251412,0.249895 0.620107,0.549032 0.616967,0.551413 z"
           id="path36266"
           sodipodi:nodetypes="ccc" /><path
           style="font-variation-settings:normal;display:inline;vector-effect:none;fill:#f9a9a8;fill-opacity:1;stroke:none;stroke-width:0.264583px;stroke-linecap:butt;stroke-linejoin:miter;stroke-miterlimit:4;stroke-dasharray:none;stroke-dashoffset:0;stroke-opacity:1;-inkscape-stroke:none;stop-color:#000000"
           d="m 13.6406,22.110097 c 0.0019,6.13e-4 0.462154,-0.131679 0.477719,-0.414964 -0.194491,0.188312 -0.470191,0.427403 -0.477719,0.414964 z"
           id="path36012-2" /><path
           style="font-variation-settings:normal;opacity:1;vector-effect:none;fill:#f9a9a8;fill-opacity:1;stroke:none;stroke-width:0.264583px;stroke-linecap:butt;stroke-linejoin:miter;stroke-miterlimit:4;stroke-dasharray:none;stroke-dashoffset:0;stroke-opacity:1;-inkscape-stroke:none;stop-color:#000000;stop-opacity:1"
           d="m 13.344535,11.028916 c 0.582231,0.201023 5.107578,0.592668 6.177963,1.810438 -0.815283,-1.459316 -5.346573,-1.814673 -6.177963,-1.810438 z"
           id="path35830" /></g><g
         id="g36277"
         style="fill:#9a1b15;fill-opacity:1"
         inkscape:label="p-shadow"><path
           style="font-variation-settings:normal;opacity:1;vector-effect:none;fill:#9a1b15;fill-opacity:1;stroke:none;stroke-width:0.264583px;stroke-linecap:butt;stroke-linejoin:miter;stroke-miterlimit:4;stroke-dasharray:none;stroke-dashoffset:0;stroke-opacity:1;-inkscape-stroke:none;stop-color:#000000;stop-opacity:1"
           d="m 15.894297,17.47582 c 0,0 1.568447,0.639296 3.105459,-0.596864 -1.738181,0.78639 -3.105459,0.596864 -3.105459,0.596864 z"
           id="path35471" /><path
           style="font-variation-settings:normal;opacity:1;vector-effect:none;fill:#9a1b15;fill-opacity:1;stroke:none;stroke-width:0.264583px;stroke-linecap:butt;stroke-linejoin:miter;stroke-miterlimit:4;stroke-dasharray:none;stroke-dashoffset:0;stroke-opacity:1;-inkscape-stroke:none;stop-color:#000000;stop-opacity:1"
           d="m 15.881726,12.870627 c 0.595275,0.07137 1.974072,0.05565 2.373095,1.04805 -0.08547,-1.174349 -1.65047,-1.319024 -2.373095,-1.04805 z"
           id="path35473" /><path
           style="font-variation-settings:normal;display:inline;vector-effect:none;fill:#9a1b15;fill-opacity:1;stroke:none;stroke-width:0.264583px;stroke-linecap:butt;stroke-linejoin:miter;stroke-miterlimit:4;stroke-dasharray:none;stroke-dashoffset:0;stroke-opacity:1;-inkscape-stroke:none;stop-color:#000000"
           d="m 12.16335,12.06585 c 0.578997,0.09125 1.325613,0.063 1.945624,0.818922 -0.134561,-1.017511 -1.25715,-0.980787 -1.945624,-0.818922 z m 3.669136,4.249941 c 0.04813,-0.805831 0.107457,-3.002152 0.03929,-3.453894 -0.06767,0.563982 -0.131799,2.58825 -0.03929,3.453894 z m -2.187272,5.795454 c 0.652862,-0.271618 1.720637,-0.261323 2.87286,-0.05162 -0.645913,0.05345 -2.218234,0.05238 -2.87286,0.05162 z"
           id="path35473-6"
           sodipodi:nodetypes="ccccccccc" /></g></g></g><g
     inkscape:groupmode="layer"
     id="layer6"
     inkscape:label="Layer 6"
     style="display:inline" /><g
     inkscape:groupmode="layer"
     id="layer5"
     inkscape:label="Layer 5"
     style="display:inline;opacity:1" /><g
     inkscape:groupmode="layer"
     id="layer4-4"
     inkscape:label="Layer 4"
     style="display:inline" /></svg>
